Coordinates
version=1
nRows=21
nColumns=28
inDegrees=yes

Units are S.I. units (second, meters, Newtons, ...)
Angles are in degrees.

endheader
time	pelvis_tilt	pelvis_list	pelvis_rotation	pelvis_tx	pelvis_ty	pelvis_tz	hip_flexion_r	hip_adduction_r	hip_rotation_r	knee_angle_r	ankle_angle_r	subtalar_angle_r	mtp_angle_r	hip_flexion_l	hip_adduction_l	hip_rotation_l	knee_angle_l	socket_flexion	socket_adduction	socket_rotation	socket_tx	socket_ty	socket_tz	foot_flex	lumbar_extension	lumbar_bending	lumbar_rotation
      0.32500000	      3.96605080	     -0.85966977	     -4.80595323	     -0.43066995	      1.01429894	      0.27695983	     15.08135582	      1.11233695	      2.40851629	    -64.74710834	      4.11543839	    -11.89399192	     29.86579197	     -1.76148491	      0.67127328	      6.38420386	     -2.13114408	      0.00000000	      0.00000000	      0.00000000	      0.00000000	     -0.00763530	      0.00000000	      1.83206717	    -13.55347605	     -2.45354754	      4.03535366
      0.32916667	      4.00584953	     -1.12492510	     -4.63167500	     -0.42582583	      1.01474535	      0.27651800	     15.49782924	      1.44925744	      2.33963307	    -64.20136112	      4.91342691	    -11.51168545	     30.04450295	     -2.17048940	      0.41849542	      6.49844361	     -2.02725819	      0.00000000	      0.00000000	      0.00000000	      0.00000000	     -0.00786170	      0.00000000	      1.88843444	    -13.65877464	     -2.07008414	      3.75157477
      0.33333333	      4.04990638	     -1.12737876	     -4.57616463	     -0.42139634	      1.01508916	      0.27626751	     16.07628782	      1.46815741	      2.31820655	    -63.80773579	      4.96710232	    -11.49256751	     30.04833185	     -2.49627693	      0.45090760	      6.52616035	     -2.02282411	      0.00000000	      0.00000000	      0.00000000	      0.00000000	     -0.00776522	      0.00000000	      1.93268109	    -13.80574884	     -2.06508393	      3.73315793
      0.33750000	      4.05219691	     -1.18291904	     -4.46141893	     -0.41619666	      1.01561817	      0.27608796	     16.48193559	      1.58409174	      2.32465433	    -63.13942116	      5.25463739	    -11.35739901	     30.09067162	     -2.92937961	      0.40269561	      6.67786046	     -1.80990654	      0.00000000	      0.00000000	      0.00000000	      0.00000000	     -0.00736039	      0.00000000	      2.11700134	    -13.75296404	     -1.98863284	      3.61281879
      0.34166667	      4.11768863	     -1.50995583	     -4.22708727	     -0.41138080	      1.01600242	      0.27553522	     16.82183873	      1.92452019	      2.12511819	    -62.47990070	      5.96982625	    -10.88523044	     30.19094469	     -3.36005926	      0.07071605	      6.89383960	     -1.70793336	      0.00000000	      0.00000000	      0.00000000	      0.00000000	     -0.00770942	      0.00000000	      2.17449264	    -13.90888687	     -1.50683907	      3.22155879
      0.34583333	      4.14700823	     -1.49482951	     -4.17688285	     -0.40696897	      1.01624226	      0.27538329	     17.38528951	      1.93100304	      2.10161568	    -62.01716177	      6.01501472	    -10.87689931	     30.18618512	     -3.67953231	      0.11399532	      6.92081815	     -1.67626303	      0.00000000	      0.00000000	      0.00000000	      0.00000000	     -0.00758690	      0.00000000	      2.23288968	    -14.05188641	     -1.51859432	      3.20391797
      0.35000000	      4.14136138	     -1.50537959	     -4.05620921	     -0.40176511	      1.01671497	      0.27522448	     17.74998850	      1.98937757	      2.11433123	    -61.23277440	      6.19463229	    -10.82395822	     30.17867261	     -4.09051282	      0.11039160	      7.04060212	     -1.48218277	      0.00000000	      0.00000000	      0.00000000	      0.00000000	     -0.00712415	      0.00000000	      2.41253537	    -13.96809865	     -1.51221772	      3.11644363
      0.35416667	      4.25406098	     -1.81644814	     -3.77418984	     -0.39692016	      1.01716666	      0.27466481	     17.97725048	      2.28090555	      1.84636477	    -60.42649509	      6.63741116	    -10.53440794	     30.01271453	     -4.57373260	     -0.21679293	      7.33499932	     -1.35596644	      0.00000000	      0.00000000	      0.00000000	      0.00000000	     -0.00734416	      0.00000000	      2.50429194	    -14.15868174	     -1.04211185	      2.66121004
      0.35833333	      4.25612440	     -1.81591553	     -3.69473781	     -0.39215452	      1.01742629	      0.27455818	     18.42823939	      2.31420250	      1.83276653	    -59.74827222	      6.77079341	    -10.54678302	     29.96603618	     -4.92443808	     -0.20681951	      7.39833067	     -1.25005523	      0.00000000	      0.00000000	      0.00000000	      0.00000000	     -0.00711541	      0.00000000	      2.61042457	    -14.19161032	     -1.05090695	      2.60966063
      0.36250000	      4.24879804	     -1.82374684	     -3.61541593	     -0.38734818	      1.01765987	      0.27445296	     18.85726759	      2.35246409	      1.81784335	    -59.01295552	      6.90559983	    -10.57007746	     29.92779005	     -5.26913572	     -0.20743227	      7.45924850	     -1.13859801	      0.00000000	      0.00000000	      0.00000000	      0.00000000	     -0.00688682	      0.00000000	      2.72404251	    -14.19831157	     -1.04072720	      2.56452738
      0.36666667	      4.23503574	     -1.85199857	     -3.52734896	     -0.38256819	      1.01785344	      0.27433754	     19.27574758	      2.41560050	      1.79492476	    -58.24196734	      7.05211151	    -10.60701151	     29.88305096	     -5.61053586	     -0.23241074	      7.53171361	     -1.01936770	      0.00000000	      0.00000000	      0.00000000	      0.00000000	     -0.00670745	      0.00000000	      2.83731936	    -14.20973860	     -1.00469568	      2.51271793
      0.37083333	      4.33961733	     -2.19470985	     -3.25412079	     -0.37775967	      1.01822555	      0.27388539	     19.44626650	      2.76893154	      1.55440321	    -57.31495927	      7.37516560	    -10.88112932	     28.78693051	     -6.08219791	     -0.61255949	      7.80274622	     -0.89586070	      0.00000000	      0.00000000	      0.00000000	      0.00000000	     -0.00698261	      0.00000000	      2.93205569	    -14.38736150	     -0.52123493	      2.10057258
      0.37500000	      4.30888416	     -2.16219639	     -3.19778325	     -0.37301241	      1.01833377	      0.27381450	     19.87577601	      2.75940813	      1.54719930	    -56.51598603	      7.46185641	    -10.89897612	     28.74511153	     -6.39203542	     -0.57054889	      7.83538107	     -0.79579878	      0.00000000	      0.00000000	      0.00000000	      0.00000000	     -0.00674411	      0.00000000	      3.04064027	    -14.38204939	     -0.56930227	      2.09493254
      0.37916667	      4.27156852	     -2.15799365	     -3.12970549	     -0.36824184	      1.01841910	      0.27376773	     20.27753196	      2.78510730	      1.52937056	    -55.66634412	      7.57353933	    -10.94816936	     28.69026780	     -6.70130021	     -0.56624860	      7.89262803	     -0.68881191	      0.00000000	      0.00000000	      0.00000000	      0.00000000	     -0.00655193	      0.00000000	      3.15662606	    -14.36153076	     -0.57938786	      2.07915478
      0.38333333	      4.22134497	     -2.21171395	     -3.02371538	     -0.36345450	      1.01847904	      0.27368076	     20.65245008	      2.87607831	      1.48996753	    -54.75153572	      7.70759034	    -11.05883529	     28.58869807	     -6.99855161	     -0.63329059	      7.98241471	     -0.57805279	      0.00000000	      0.00000000	      0.00000000	      0.00000000	     -0.00644790	      0.00000000	      3.27380427	    -14.32885137	     -0.50712451	      2.04604263
      0.38750000	      4.16819466	     -2.28797949	     -2.90989627	     -0.35867351	      1.01851539	      0.27357060	     21.00637570	      2.98038738	      1.42817211	    -53.79469920	      7.82099351	    -11.22698932	     28.43935679	     -7.28714998	     -0.72699541	      8.08397840	     -0.47733102	      0.00000000	      0.00000000	      0.00000000	      0.00000000	     -0.00639386	      0.00000000	      3.38681475	    -14.29708472	     -0.40423795	      1.99256249
      0.39166667	      4.12232208	     -2.30030350	     -2.83520374	     -0.35397271	      1.01847614	      0.27342913	     21.38223563	      3.00340981	      1.37027772	    -52.87754699	      7.90327890	    -11.34901201	     28.33463511	     -7.56870526	     -0.73211797	      8.12832120	     -0.39379806	      0.00000000	      0.00000000	      0.00000000	      0.00000000	     -0.00631602	      0.00000000	      3.48847524	    -14.28714479	     -0.38759014	      1.95602533
      0.39583333	      4.06017962	     -2.61592383	     -2.58102411	     -0.34929690	      1.01853086	      0.27310137	     21.62599526	      3.37374039	      1.23448050	    -51.71355741	      7.80995970	    -12.20877204	     27.29529570	     -7.82779350	     -1.11170646	      8.40012041	     -0.30476580	      0.00000000	      0.00000000	      0.00000000	      0.00000000	     -0.00658038	      0.00000000	      3.59746154	    -14.29577583	      0.07093494	      1.66141075
      0.40000000	      4.01235720	     -2.54591691	     -2.55231161	     -0.34465409	      1.01838833	      0.27313712	     22.02478180	      3.30554950	      1.17186294	    -50.82644800	      7.90679036	    -12.24948426	     27.24039568	     -8.10599062	     -1.03272360	      8.36387795	     -0.22815826	      0.00000000	      0.00000000	      0.00000000	      0.00000000	     -0.00644323	      0.00000000	      3.68950833	    -14.30563694	     -0.03069698	      1.65928606
      0.40416667	      3.94358356	     -2.48804038	     -2.49125505	     -0.33983429	      1.01836361	      0.27308639	     22.32968990	      3.26612887	      1.16572037	    -49.75302121	      8.03045088	    -12.33428746	     27.14266481	     -8.36886237	     -0.97011960	      8.40603236	     -0.15047113	      0.00000000	      0.00000000	      0.00000000	      0.00000000	     -0.00616872	      0.00000000	      3.81551606	    -14.21391367	     -0.10946401	      1.66114681
      0.40833333	      3.86362017	     -2.45605463	     -2.41874432	     -0.33514907	      1.01824504	      0.27305683	     22.65858781	      3.25954466	      1.14658336	    -48.70166966	      8.13994531	    -12.45890217	     27.01910825	     -8.60345443	     -0.94246827	      8.46185056	     -0.08155354	      0.00000000	      0.00000000	      0.00000000	      0.00000000	     -0.00600119	      0.00000000	      3.92884351	    -14.16004126	     -0.14634305	      1.65991262
